<svg width="20" height="20" viewBox="0 0 20 20" fill="none" xmlns="http://www.w3.org/2000/svg">
<path d="M7.33333 3.33301H6C5.44772 3.33301 5 3.78072 5 4.33301V15.6663C5 16.2186 5.44771 16.6663 6 16.6663H7.33333C7.88562 16.6663 8.33333 16.2186 8.33333 15.6663V4.33301C8.33333 3.78072 7.88562 3.33301 7.33333 3.33301Z" fill="#4A4949" stroke="#4A4949" stroke-width="2" stroke-linecap="round" stroke-linejoin="round"/>
<path d="M13.9998 3.33301H12.6665C12.1142 3.33301 11.6665 3.78072 11.6665 4.33301V15.6663C11.6665 16.2186 12.1142 16.6663 12.6665 16.6663H13.9998C14.5521 16.6663 14.9998 16.2186 14.9998 15.6663V4.33301C14.9998 3.78072 14.5521 3.33301 13.9998 3.33301Z" fill="#4A4949" stroke="#4A4949" stroke-width="2" stroke-linecap="round" stroke-linejoin="round"/>
</svg>
